<?xml version="1.0" standalone="no"?>
<!DOCTYPE svg PUBLIC "-//W3C//DTD SVG 20010904//EN"
 "http://www.w3.org/TR/2001/REC-SVG-20010904/DTD/svg10.dtd">
<svg version="1.0" xmlns="http://www.w3.org/2000/svg"
 width="444.000000pt" height="444.000000pt" viewBox="0 0 444.000000 444.000000"
 preserveAspectRatio="xMidYMid meet">
<metadata>
Created by potrace 1.11, written by Peter Selinger 2001-2013
</metadata>
<g transform="translate(0.000000,444.000000) scale(0.100000,-0.100000)"
fill="#000000" stroke="none">
<path d="M178 2694 c-57 -31 -58 -35 -58 -489 0 -457 0 -459 60 -490 25 -13
79 -15 357 -13 l328 3 1 313 1 312 -29 1 c-15 0 -68 0 -118 0 -49 0 -110 0
-135 0 l-45 -1 0 -182 c0 -101 -4 -189 -9 -196 -9 -15 -70 -10 -80 6 -9 14 -5
487 4 501 6 11 19 11 83 1 1 0 2 -9 2 -20 0 -20 5 -20 163 -18 l162 3 0 101
c0 112 -10 141 -55 167 -25 15 -65 17 -317 17 -235 -1 -293 -4 -315 -16z"/>
<path d="M998 2693 c-54 -34 -54 -37 -53 -495 1 -464 0 -454 61 -483 26 -12
84 -15 314 -15 309 0 325 3 355 60 20 38 22 236 3 242 -11 3 -253 2 -295 -1
-7 -1 -13 -9 -13 -20 0 -10 -6 -23 -12 -28 -14 -11 -67 -11 -83 -1 -11 7 -12
114 -2 125 4 4 96 7 205 8 108 1 200 3 205 4 4 0 7 120 7 266 0 292 -3 311
-60 340 -24 12 -79 15 -317 15 -253 0 -291 -3 -315 -17z m361 -237 c7 -8 11
-37 9 -68 l-3 -53 -38 -3 c-53 -5 -66 9 -62 68 2 27 5 53 8 57 10 15 73 14 86
-1z"/>
<path d="M1824 2691 c-17 -11 -36 -34 -43 -52 -7 -22 -11 -162 -11 -443 1
-444 0 -440 56 -477 27 -18 49 -19 317 -19 320 0 331 2 361 64 20 43 24 235 4
237 -7 1 -76 2 -152 2 -105 2 -143 -1 -153 -11 -7 -8 -11 -18 -8 -22 14 -22
-65 -34 -96 -14 -9 5 -6 110 4 120 4 4 98 8 209 8 l203 1 3 263 c2 228 0 268
-14 298 -30 62 -41 64 -361 64 -265 0 -290 -2 -319 -19z m363 -234 c8 -5 12
-85 5 -119 -1 -5 -22 -8 -47 -8 -25 0 -46 3 -46 8 -7 42 -6 100 2 114 7 13 19
18 42 15 18 -2 38 -6 44 -10z"/>
<path d="M2595 2698 c-2 -7 -3 -233 -2 -503 l2 -490 153 -3 152 -3 0 76 c0 41
4 75 8 75 5 0 30 -34 56 -75 l48 -75 169 0 c116 0 169 3 169 11 0 6 -8 23 -18
37 -10 15 -74 123 -142 240 l-123 214 21 41 c12 23 33 60 47 82 14 22 28 47
32 55 4 8 31 55 60 103 29 48 53 90 53 92 0 3 16 29 35 59 19 30 35 60 35 66
0 7 -55 10 -172 8 l-172 -3 -43 -65 c-24 -36 -48 -66 -53 -68 -6 -2 -10 26
-10 67 l0 71 -150 0 c-112 0 -152 -3 -155 -12z"/>
<path d="M3457 2688 c-8 -13 -34 -54 -59 -93 -24 -38 -60 -96 -79 -128 -49
-85 -50 -85 -101 -168 -27 -42 -48 -84 -48 -93 0 -10 43 -88 97 -174 114 -187
126 -206 152 -252 11 -19 29 -46 40 -60 l21 -25 0 508 c0 279 -2 507 -5 507
-2 0 -11 -10 -18 -22z"/>
<path d="M3623 2689 c-22 -14 -36 -33 -42 -57 -5 -21 -9 -139 -8 -264 l2 -228
28 -27 27 -28 176 -2 c97 -1 177 -3 179 -5 4 -3 8 -84 6 -109 -1 -19 -37 -31
-69 -22 -16 4 -22 13 -22 33 0 15 -6 30 -12 32 -11 3 -248 2 -300 -1 -15 -1
-17 -14 -15 -118 5 -196 -1 -193 377 -193 309 0 325 3 355 60 12 23 15 73 15
260 0 243 -5 276 -47 296 -10 5 -97 11 -193 14 l-175 5 -3 62 c-3 59 -2 63 22
69 39 10 61 1 64 -26 2 -14 7 -29 11 -33 7 -7 99 -9 274 -8 l47 1 0 114 c0
101 -2 117 -23 147 -12 18 -33 36 -47 40 -14 4 -153 7 -310 8 -272 1 -286 0
-317 -20z"/>
</g>
</svg>
